<?xml version="1.0" encoding="utf-8"?>
<!-- Generator: Adobe Illustrator 24.0.1, SVG Export Plug-In . SVG Version: 6.00 Build 0)  -->
<svg version="1.1" id="Layer_1" xmlns="http://www.w3.org/2000/svg" xmlns:xlink="http://www.w3.org/1999/xlink" x="0px" y="0px"
	 width="100px" height="100px" viewBox="0 0 100 100" style="enable-background:new 0 0 100 100;" xml:space="preserve">
<style type="text/css">
	.st0{fill:none;stroke:#050038;stroke-width:3;}
	.st1{fill:none;stroke:#02D29A;stroke-width:3;}
</style>
<g>
	<g>
		<g>
			<g>
				<polyline class="st0" points="67.9,66.6 76.1,86.1 65.2,85.7 57.8,93.9 48.8,72.3 				"/>
			</g>
			<g>
				<polyline class="st0" points="50.1,76.1 42.1,95.9 34.6,87.9 23.6,88.4 32.7,66 				"/>
			</g>
		</g>
		<g>
			<path class="st1" d="M85.3,37.5c0,1.8-3.3,3.3-3.5,5c-0.3,1.8,2.4,4.2,1.8,5.9c-0.6,1.7-4.1,2.1-4.9,3.7
				c-0.8,1.6,0.9,4.7-0.1,6.2c-1,1.4-4.6,0.7-5.8,2c-1.2,1.3-0.6,4.8-2,5.8c-1.4,1-4.6-0.7-6.2,0.1c-1.6,0.8-2,4.4-3.7,4.9
				c-1.7,0.5-4.1-2.1-5.9-1.8c-1.7,0.3-3.2,3.5-5,3.5c-1.8,0-3.3-3.3-5-3.5c-1.8-0.3-4.2,2.4-5.9,1.8c-1.7-0.6-2.1-4.1-3.7-4.9
				c-1.6-0.8-4.7,0.9-6.2-0.1c-1.4-1-0.7-4.6-2-5.8c-1.3-1.2-4.8-0.6-5.8-2c-1-1.4,0.7-4.6-0.1-6.2c-0.8-1.6-4.4-2-4.9-3.7
				c-0.5-1.7,2.1-4.1,1.8-5.9c-0.3-1.7-3.5-3.2-3.5-5c0-1.8,3.3-3.3,3.5-5c0.3-1.8-2.4-4.2-1.8-5.9c0.5-1.7,4.1-2.1,4.9-3.7
				c0.8-1.6-0.9-4.7,0.1-6.2c1-1.4,4.6-0.7,5.8-2c1.2-1.2,0.6-4.8,2-5.8c1.4-1,4.6,0.7,6.2-0.1c1.6-0.8,2-4.4,3.7-4.9
				c1.7-0.5,4.1,2.1,5.9,1.8c1.7-0.3,3.2-3.5,5-3.5c1.8,0,3.3,3.3,5,3.5c1.8,0.3,4.2-2.4,5.9-1.8C62.5,4.4,63,8,64.5,8.8
				c1.6,0.8,4.7-0.9,6.2,0.1c1.4,1,0.7,4.6,2,5.8c1.2,1.2,4.8,0.6,5.8,2c1,1.4-0.7,4.6,0.1,6.2c0.8,1.6,4.4,2,4.9,3.7
				c0.5,1.7-2.1,4.1-1.8,5.9C82,34.2,85.3,35.7,85.3,37.5z"/>
			<path class="st0" d="M76.2,37.5c0,14.5-11.8,26.3-26.3,26.3c-14.5,0-26.3-11.8-26.3-26.3c0-14.5,11.8-26.3,26.3-26.3
				C64.4,11.2,76.2,23,76.2,37.5z"/>
			<path class="st0" d="M70.3,37.5c0,11.3-9.1,20.4-20.4,20.4c-11.3,0-20.4-9.1-20.4-20.4c0-11.3,9.1-20.4,20.4-20.4
				C61.1,17.1,70.3,26.2,70.3,37.5z"/>
			<line class="st0" x1="58.1" y1="19.2" x2="44.4" y2="32.9"/>
			<line class="st0" x1="63.1" y1="21.3" x2="39.2" y2="45.2"/>
		</g>
	</g>
</g>
</svg>
