<?xml version="1.0" encoding="utf-8"?>
<!-- Generator: Adobe Illustrator 19.2.0, SVG Export Plug-In . SVG Version: 6.00 Build 0)  -->
<svg version="1.1" id="Layer_1" xmlns="http://www.w3.org/2000/svg" xmlns:xlink="http://www.w3.org/1999/xlink" x="0px" y="0px"
	 width="100px" height="100px" viewBox="0 0 100 100" style="enable-background:new 0 0 100 100;" xml:space="preserve">
<style type="text/css">
	.st0{fill:none;stroke:#100F36;stroke-width:2;stroke-miterlimit:10;}
	.st1{fill:none;stroke:#49BC93;stroke-width:2;stroke-miterlimit:10;}
	.st2{fill:none;stroke:#100F36;stroke-width:2;}
	.st3{fill:#48BC93;}
</style>
<g>
	<g>
		<circle class="st0" cx="72.8" cy="74.3" r="22"/>
		<ellipse class="st0" cx="72.8" cy="74.3" rx="16.8" ry="16.8"/>
	</g>
	<g>
		<circle class="st0" cx="30.7" cy="24.8" r="22"/>
		<ellipse class="st0" cx="30.7" cy="24.8" rx="16.8" ry="16.8"/>
		<g>
			<g>
				<line class="st1" x1="18.5" y1="22.3" x2="30.6" y2="22.3"/>
				<line class="st1" x1="18.5" y1="27.2" x2="30.6" y2="27.2"/>
			</g>
			<path class="st1" d="M38.5,18.1c-1.9-2.2-4.6-3.5-7.7-3.5c-5.6,0-10.1,4.5-10.1,10.1c0,5.6,4.5,10.1,10.1,10.1
				c3.1,0,5.8-1.4,7.7-3.5"/>
		</g>
	</g>
	<path class="st2" d="M49.1,88.1c-22-0.6-39.3-18.9-38.7-40.9c0-1,0.1-2,0.2-3"/>
	<path class="st2" d="M51.2,8.5c22,0.6,39.3,18.9,38.7,40.9"/>
	<polyline class="st0" points="97.4,43.1 89.5,51 81.6,43.1 	"/>
	<polyline class="st0" points="2.7,52.6 10.6,44.6 18.5,52.6 	"/>
</g>
<path class="st3" d="M81.2,77.9c0-2.4-1.4-4.5-3.4-5.5c1-0.8,1.6-2,1.6-3.4c0-2.3-1.7-4.1-4-4.3v-1.3c0-0.4-0.4-0.8-0.8-0.8
	c-0.4,0-0.8,0.4-0.8,0.8v1.3h-2v-1.3c0-0.4-0.4-0.8-0.8-0.8c-0.4,0-0.8,0.4-0.8,0.8v1.3h-3.1c-0.4,0-0.8,0.4-0.8,0.8
	c0,0.4,0.4,0.8,0.8,0.8h1v16.3h-1c-0.4,0-0.8,0.4-0.8,0.8s0.4,0.8,0.8,0.8h3.1v1.3c0,0.4,0.4,0.8,0.8,0.8c0.4,0,0.8-0.4,0.8-0.8V84
	h2v1.3c0,0.4,0.4,0.8,0.8,0.8c0.4,0,0.8-0.4,0.8-0.8V84C78.6,83.8,81.2,81.1,81.2,77.9z M75,66.2c1.5,0,2.8,1.2,2.8,2.8
	c0,1.5-1.2,2.8-2.8,2.8h-5.3v-5.5H75z M75,82.4h-5.3v-9.2H75c2.5,0,4.6,2.1,4.6,4.6C79.6,80.4,77.5,82.4,75,82.4z"/>
</svg>
