<?xml version="1.0" encoding="utf-8"?>
<!-- Generator: Adobe Illustrator 19.2.0, SVG Export Plug-In . SVG Version: 6.00 Build 0)  -->
<svg version="1.1" id="Layer_1" xmlns="http://www.w3.org/2000/svg" xmlns:xlink="http://www.w3.org/1999/xlink" x="0px" y="0px"
	 width="100px" height="100px" viewBox="0 0 100 100" style="enable-background:new 0 0 100 100;" xml:space="preserve">
<style type="text/css">
	.st0{fill:none;stroke:#02D29A;stroke-width:2;stroke-miterlimit:10;}
	.st1{fill:none;stroke:#050038;stroke-width:2;stroke-linecap:round;stroke-miterlimit:10;}
	.st2{fill:#FFFFFF;stroke:#02D29A;stroke-width:2;stroke-miterlimit:10;}
	.st3{fill:none;stroke:#02D29A;stroke-width:2;stroke-linecap:round;stroke-miterlimit:10;}
	.st4{fill:none;stroke:#050038;stroke-width:2;stroke-miterlimit:10;}
</style>
<g>
	<path class="st0" d="M78.7,53.8c-3.2-12.1-13-21.5-25.3-24.3V12.1h2.2V3.3h-2.2H38.2H36v8.8h2.2v17.4c-15.1,3.5-26.4,17-26.4,33.2
		c0,18.8,15.2,34,34,34c5.1,0,10-1.1,14.4-3.2"/>
</g>
<circle class="st1" cx="29.7" cy="60.8" r="3"/>
<path class="st2" d="M65.9,5.1c-1.1,0-2,0.9-2,2s0.9,2,2,2s2-0.9,2-2C67.9,5.9,67,5.1,65.9,5.1L65.9,5.1z"/>
<path class="st3" d="M55,89.4c-2.9,1-6,1.6-9.2,1.6C32.9,91,22.1,82.2,19,70.3h30.1"/>
<g>
	<circle class="st4" cx="70.4" cy="74" r="21.6"/>
	<ellipse class="st1" cx="70.4" cy="74" rx="16.5" ry="16.5"/>
	<path class="st4" d="M75.3,68.3v-1.1c0-1.9-1.6-3.5-3.5-3.5H69c-1.9,0-3.5,1.6-3.5,3.5v2.4c0,1.1,0.9,2,2,2.7l5.4,2.1"/>
	<path class="st4" d="M65.4,78.6v1.1c0,1.9,1.6,3.5,3.5,3.5h2.8c1.9,0,3.5-1.6,3.5-3.5v-2.4c0-1.1-0.9-2.1-2-2.8l-5.1-2"/>
	<line class="st4" x1="70.6" y1="60.6" x2="70.6" y2="86.5"/>
</g>
<g>
	<path class="st4" d="M49.2,48.9V48c0-1.5-1.2-2.7-2.7-2.7h-2.1c-1.5,0-2.7,1.2-2.7,2.7v1.8c0,0.8,0.6,1.5,1.5,2.1l4,1.6"/>
	<path class="st4" d="M41.8,56.7v0.8c0,1.5,1.2,2.7,2.7,2.7h2.1c1.5,0,2.7-1.2,2.7-2.7v-1.8c0-0.8-0.7-1.6-1.5-2.1l-3.9-1.5"/>
	<line class="st4" x1="45.7" y1="42.8" x2="45.7" y2="62.9"/>
</g>
<g>
	<path class="st0" d="M69.9,20.1v-0.6c0-1.1-0.9-2-2-2h-1.6c-1.1,0-2,0.9-2,2v1.3c0,0.6,0.5,1.1,1.1,1.5l3,1.2"/>
	<path class="st0" d="M64.4,26v0.6c0,1.1,0.9,2,2,2H68c1.1,0,2-0.9,2-2v-1.3c0-0.6-0.5-1.2-1.2-1.6l-2.9-1.1"/>
	<line class="st0" x1="67.3" y1="14.4" x2="67.3" y2="31.8"/>
</g>
<circle class="st1" cx="55.9" cy="40.8" r="4.6"/>
<line class="st0" x1="38.2" y1="12.1" x2="49.7" y2="12.1"/>
</svg>
