<?xml version="1.0" encoding="utf-8"?>
<!-- Generator: Adobe Illustrator 19.2.0, SVG Export Plug-In . SVG Version: 6.00 Build 0)  -->
<svg version="1.1" id="Layer_1" xmlns="http://www.w3.org/2000/svg" xmlns:xlink="http://www.w3.org/1999/xlink" x="0px" y="0px"
	 width="100px" height="100px" viewBox="0 0 100 100" style="enable-background:new 0 0 100 100;" xml:space="preserve">
<style type="text/css">
	.st0{fill:none;stroke:#02D29A;stroke-width:2;stroke-miterlimit:10;}
	.st1{fill:none;stroke:#000000;stroke-width:2;stroke-miterlimit:10;}
	.st2{fill:none;stroke:#080808;stroke-width:2;stroke-miterlimit:10;}
</style>
<path class="st0" d="M44.3,33.3c-3.3,0.4-6.2,1.5-9.1,2.5c-1.5-1.9-3.8-3.1-6.3-3.1c-1.4,0-2.7,0.4-3.8,1v7.6
	c-4.8,3.6-8.3,8.3-10.1,13.5h-4.8C7.5,54.8,8,57,8,59.7v5.7c0,2.7-0.4,4.9,2.2,4.9H15c1.8,5.2,5.3,9.9,10.1,13.5V93
	c0,2.7,2.2,4.9,4.9,4.9h5.7c2.7,0,4.9-2.2,4.9-4.9v-2.3c3.1,0.7,6.4,1.1,9.8,1.1c4,0,7.8-0.5,11.4-1.5V93c0,2.7,2.2,4.9,4.9,4.9h5.7
	c2.7,0,4.9-2.2,4.9-4.9V82.4c6.1-5.2,9.8-12.2,9.8-19.9c0-0.1,0-0.2,0-0.3c0,0,0-2-0.6-5c-2.6-10.4-12.1-19-24.5-22.4"/>
<path class="st0" d="M44.3,34.9c0,0,9.2-1,18.1,2.1"/>
<path class="st0" d="M84.3,51.8c1,3.2,4.7,4.5,6.6,3.1c4.5-3.3,3-7.2,1.2-6.9c-4.3,0.9,1.6,8.8,5.1,5.3"/>
<path class="st1" d="M53.2,3.2C61.4,3.2,68,9.8,68,18.1C68,26.3,61.3,33,53.1,33s-14.9-6.7-14.9-14.9C38.3,9.8,44.9,3.2,53.2,3.2"/>
<ellipse class="st2" cx="53.3" cy="18.1" rx="6.4" ry="8"/>
<path class="st0" d="M21.3,48.3c-0.7,0-1.5,0.6-1.9,1.6c-0.5,1.2-0.2,2.4,0.6,2.7c0.2,0.1,0.3,0.1,0.5,0.1c0.7,0,1.5-0.6,1.9-1.6
	c0.5-1.2,0.2-2.4-0.6-2.7C21.6,48.4,21.5,48.3,21.3,48.3L21.3,48.3z"/>
</svg>
