<?xml version="1.0" encoding="utf-8"?>
<!-- Generator: Adobe Illustrator 19.2.0, SVG Export Plug-In . SVG Version: 6.00 Build 0)  -->
<svg version="1.1" id="Layer_1" xmlns="http://www.w3.org/2000/svg" xmlns:xlink="http://www.w3.org/1999/xlink" x="0px" y="0px"
	 width="100px" height="100px" viewBox="0 0 100 100" style="enable-background:new 0 0 100 100;" xml:space="preserve">
<style type="text/css">
	.st0{fill:none;stroke:#02D29A;stroke-width:2;stroke-miterlimit:10;}
	.st1{fill:none;stroke:#050038;stroke-width:2;stroke-linecap:round;stroke-linejoin:bevel;stroke-miterlimit:10;}
	.st2{fill:none;stroke:#050038;stroke-width:2;stroke-miterlimit:10;}
</style>
<g>
	<path class="st0" d="M97.3,55.7l0-12.8l-7.6-1.6c-0.4-1.6-0.9-3.1-1.4-4.6l5.7-5.2l-6.4-11.1l-7.9,2.5c-1-1.1-2.1-2.1-3.2-3
		l2.5-7.7L67.9,5.8L62.3,12c-1.4-0.4-2.8-0.8-4.2-1.1l-1.7-8H43.5l-1.7,8c-1.5,0.3-3,0.7-4.5,1.2l-5.3-5.8L21,12.7l2.3,7.2
		c-1.3,1.1-2.6,2.3-3.7,3.6l-6.9-2.2L6.4,32.4l5.1,4.6c-0.7,1.8-1.2,3.7-1.6,5.6l-6.3,1.3l0,12.8l6,1.3c0.4,2.2,0.9,4.3,1.6,6.3
		l-4.2,3.8l6.4,11.1l5.3-1.7c1.5,1.8,3.1,3.4,4.9,4.9l-1.6,5L33,93.9l3.6-4c2.2,0.8,4.5,1.3,6.8,1.7l1.1,5.1l12.8,0l1.2-5.5
		c2.2-0.5,4.4-1.1,6.5-2l3.8,4.2L79.9,87l-1.9-6c1.5-1.4,2.9-2.9,4.2-4.6l6,1.9l6.4-11.1l-5.2-4.7c0.5-1.7,0.9-3.5,1.2-5.4
		L97.3,55.7z"/>
	<circle class="st1" cx="50.4" cy="49.8" r="33.7"/>
	<g>
		<line class="st2" x1="50.4" y1="21.3" x2="50.4" y2="23.4"/>
		<line class="st2" x1="36.2" y1="25.1" x2="37.2" y2="26.9"/>
		<line class="st2" x1="25.7" y1="35.6" x2="27.5" y2="36.6"/>
		<line class="st2" x1="21.9" y1="49.8" x2="24" y2="49.8"/>
		<line class="st2" x1="25.7" y1="64.1" x2="27.5" y2="63.1"/>
		<line class="st2" x1="36.2" y1="74.5" x2="37.2" y2="72.8"/>
		<line class="st2" x1="50.4" y1="78.4" x2="50.4" y2="76.3"/>
		<line class="st2" x1="64.7" y1="74.5" x2="63.7" y2="72.8"/>
		<line class="st2" x1="75.1" y1="64.1" x2="73.4" y2="63.1"/>
		<line class="st2" x1="79" y1="49.8" x2="76.9" y2="49.8"/>
		<line class="st2" x1="75.1" y1="35.6" x2="73.4" y2="36.6"/>
		<line class="st2" x1="64.7" y1="25.1" x2="63.7" y2="26.9"/>
	</g>
	<g>
		<g>
			
				<ellipse transform="matrix(0.6667 -0.7453 0.7453 0.6667 -20.3301 54.1997)" class="st1" cx="50.4" cy="49.8" rx="1.9" ry="1.9"/>
			<line class="st2" x1="64.8" y1="33.8" x2="51.7" y2="48.4"/>
			<line class="st2" x1="36.7" y1="37.6" x2="49.6" y2="49.1"/>
		</g>
	</g>
</g>
</svg>
