<svg width="201" height="57" viewBox="0 0 201 57" fill="none" xmlns="http://www.w3.org/2000/svg">
<path d="M1 46.2823V8.60801L14.4252 1L27.4816 8.60801L40.7592 1L54 8.60801V46.2823L40.7592 54L27.4816 46.2823L14.4252 54L1 46.2823Z" stroke="black" stroke-width="2" stroke-linejoin="round"/>
<path d="M14.2593 1V23.9628L27.4814 16.3333L40.7407 23.9628V1M1 47L27.4814 31.7039L54 47" stroke="black" stroke-width="2" stroke-linejoin="round"/>
<path d="M28 8V32" stroke="black" stroke-linejoin="round"/>
<path d="M76.02 13.84C75.236 16.3413 74.4427 18.656 73.64 20.784C72.8373 22.912 72.0347 24.984 71.232 27H68.516C67.5267 24.144 66.6493 21.1293 65.884 17.956C65.1373 14.7827 64.4373 11.3293 63.784 7.596H66.64C66.9013 9.052 67.172 10.508 67.452 11.964C67.732 13.42 68.0213 14.8387 68.32 16.22C68.6187 17.5827 68.9173 18.8893 69.216 20.14C69.5147 21.3907 69.8227 22.548 70.14 23.612C70.8867 21.652 71.68 19.5053 72.52 17.172C73.36 14.82 74.144 12.3933 74.872 9.892H77.224C77.952 12.3933 78.7453 14.82 79.604 17.172C80.4627 19.5053 81.2653 21.652 82.012 23.612C82.3107 22.5667 82.6093 21.4187 82.908 20.168C83.2067 18.9173 83.496 17.6107 83.776 16.248C84.0747 14.8667 84.364 13.448 84.644 11.992C84.924 10.5173 85.1947 9.052 85.456 7.596H88.228C87.556 11.3293 86.8373 14.7827 86.072 17.956C85.3253 21.1293 84.4667 24.144 83.496 27H80.78C79.9587 24.984 79.156 22.912 78.372 20.784C77.588 18.656 76.804 16.3413 76.02 13.84ZM102.316 26.58C101.719 26.7293 100.926 26.888 99.9364 27.056C98.9657 27.224 97.8364 27.308 96.5484 27.308C95.4284 27.308 94.4857 27.1493 93.7204 26.832C92.955 26.496 92.339 26.0293 91.8724 25.432C91.4057 24.8347 91.0697 24.1347 90.8644 23.332C90.659 22.5107 90.5564 21.6053 90.5564 20.616V12.44H93.1604V20.056C93.1604 21.8293 93.4404 23.0987 94.0004 23.864C94.5604 24.6293 95.503 25.012 96.8284 25.012C97.1084 25.012 97.3977 25.0027 97.6964 24.984C97.995 24.9653 98.275 24.9467 98.5364 24.928C98.7977 24.8907 99.031 24.8627 99.2364 24.844C99.4604 24.8067 99.619 24.7693 99.7124 24.732V12.44H102.316V26.58ZM106.803 12.86C107.4 12.7107 108.193 12.552 109.183 12.384C110.172 12.216 111.311 12.132 112.599 12.132C113.756 12.132 114.717 12.3 115.483 12.636C116.248 12.9533 116.855 13.4107 117.303 14.008C117.769 14.5867 118.096 15.2867 118.283 16.108C118.469 16.9293 118.562 17.8347 118.562 18.824V27H115.959V19.384C115.959 18.488 115.893 17.7227 115.763 17.088C115.651 16.4533 115.455 15.94 115.175 15.548C114.895 15.156 114.521 14.876 114.055 14.708C113.588 14.5213 113.009 14.428 112.319 14.428C112.039 14.428 111.749 14.4373 111.451 14.456C111.152 14.4747 110.863 14.5027 110.583 14.54C110.321 14.5587 110.079 14.5867 109.855 14.624C109.649 14.6613 109.5 14.6893 109.407 14.708V27H106.803V12.86ZM132.289 15.52C131.971 15.2587 131.514 15.0067 130.917 14.764C130.319 14.5213 129.666 14.4 128.957 14.4C128.21 14.4 127.566 14.54 127.025 14.82C126.502 15.0813 126.073 15.4547 125.737 15.94C125.401 16.4067 125.158 16.9667 125.009 17.62C124.859 18.2733 124.785 18.9733 124.785 19.72C124.785 21.4187 125.205 22.7347 126.045 23.668C126.885 24.5827 128.005 25.04 129.405 25.04C130.114 25.04 130.702 25.012 131.169 24.956C131.654 24.8813 132.027 24.8067 132.289 24.732V15.52ZM132.289 5.72L134.893 5.272V26.58C134.295 26.748 133.53 26.916 132.597 27.084C131.663 27.252 130.59 27.336 129.377 27.336C128.257 27.336 127.249 27.1587 126.353 26.804C125.457 26.4493 124.691 25.9453 124.057 25.292C123.422 24.6387 122.927 23.8453 122.573 22.912C122.237 21.96 122.069 20.896 122.069 19.72C122.069 18.6 122.209 17.5733 122.489 16.64C122.787 15.7067 123.217 14.904 123.777 14.232C124.337 13.56 125.018 13.0373 125.821 12.664C126.642 12.2907 127.575 12.104 128.621 12.104C129.461 12.104 130.198 12.216 130.833 12.44C131.486 12.664 131.971 12.8787 132.289 13.084V5.72ZM138.557 19.748C138.557 18.46 138.744 17.34 139.117 16.388C139.49 15.4173 139.985 14.6147 140.601 13.98C141.217 13.3453 141.926 12.8693 142.729 12.552C143.532 12.2347 144.353 12.076 145.193 12.076C147.153 12.076 148.656 12.692 149.701 13.924C150.746 15.1373 151.269 16.9947 151.269 19.496C151.269 19.608 151.269 19.7573 151.269 19.944C151.269 20.112 151.26 20.2707 151.241 20.42H141.273C141.385 21.932 141.824 23.08 142.589 23.864C143.354 24.648 144.549 25.04 146.173 25.04C147.088 25.04 147.853 24.9653 148.469 24.816C149.104 24.648 149.58 24.4893 149.897 24.34L150.261 26.524C149.944 26.692 149.384 26.8693 148.581 27.056C147.797 27.2427 146.901 27.336 145.893 27.336C144.624 27.336 143.522 27.1493 142.589 26.776C141.674 26.384 140.918 25.852 140.321 25.18C139.724 24.508 139.276 23.7147 138.977 22.8C138.697 21.8667 138.557 20.8493 138.557 19.748ZM148.553 18.32C148.572 17.144 148.273 16.1827 147.657 15.436C147.06 14.6707 146.229 14.288 145.165 14.288C144.568 14.288 144.036 14.4093 143.569 14.652C143.121 14.876 142.738 15.1747 142.421 15.548C142.104 15.9213 141.852 16.3507 141.665 16.836C141.497 17.3213 141.385 17.816 141.329 18.32H148.553ZM160.386 12.132C160.61 12.132 160.862 12.1507 161.142 12.188C161.44 12.2067 161.73 12.244 162.01 12.3C162.29 12.3373 162.542 12.384 162.766 12.44C163.008 12.4773 163.186 12.5147 163.298 12.552L162.85 14.82C162.644 14.7453 162.299 14.6613 161.814 14.568C161.347 14.456 160.74 14.4 159.994 14.4C159.508 14.4 159.023 14.456 158.538 14.568C158.071 14.6613 157.763 14.7267 157.614 14.764V27H155.01V13.056C155.626 12.832 156.391 12.6267 157.306 12.44C158.22 12.2347 159.247 12.132 160.386 12.132ZM168.414 13.084C168.732 12.8787 169.208 12.664 169.842 12.44C170.496 12.216 171.242 12.104 172.082 12.104C173.128 12.104 174.052 12.2907 174.854 12.664C175.676 13.0373 176.366 13.56 176.926 14.232C177.486 14.904 177.906 15.7067 178.186 16.64C178.485 17.5733 178.634 18.6 178.634 19.72C178.634 20.896 178.457 21.96 178.102 22.912C177.766 23.8453 177.281 24.6387 176.646 25.292C176.012 25.9453 175.246 26.4493 174.35 26.804C173.454 27.1587 172.446 27.336 171.326 27.336C170.113 27.336 169.04 27.252 168.106 27.084C167.173 26.916 166.408 26.748 165.81 26.58V5.72L168.414 5.272V13.084ZM168.414 24.732C168.676 24.8067 169.04 24.8813 169.506 24.956C169.992 25.012 170.589 25.04 171.298 25.04C172.698 25.04 173.818 24.5827 174.658 23.668C175.498 22.7347 175.918 21.4187 175.918 19.72C175.918 18.9733 175.844 18.2733 175.694 17.62C175.545 16.9667 175.302 16.4067 174.966 15.94C174.63 15.4547 174.192 15.0813 173.65 14.82C173.128 14.54 172.493 14.4 171.746 14.4C171.037 14.4 170.384 14.5213 169.786 14.764C169.189 15.0067 168.732 15.2587 168.414 15.52V24.732ZM184.903 27H182.299V12.44H184.903V27ZM183.587 9.808C183.12 9.808 182.719 9.65867 182.383 9.36C182.065 9.04267 181.907 8.62267 181.907 8.1C181.907 7.57733 182.065 7.16667 182.383 6.868C182.719 6.55067 183.12 6.392 183.587 6.392C184.053 6.392 184.445 6.55067 184.763 6.868C185.099 7.16667 185.267 7.57733 185.267 8.1C185.267 8.62267 185.099 9.04267 184.763 9.36C184.445 9.65867 184.053 9.808 183.587 9.808ZM191.817 12.44H197.333V14.624H191.817V21.344C191.817 22.072 191.873 22.6787 191.985 23.164C192.097 23.6307 192.265 24.004 192.489 24.284C192.713 24.5453 192.993 24.732 193.329 24.844C193.665 24.956 194.057 25.012 194.505 25.012C195.289 25.012 195.914 24.928 196.381 24.76C196.866 24.5733 197.202 24.4427 197.389 24.368L197.893 26.524C197.631 26.6547 197.174 26.8133 196.521 27C195.867 27.2053 195.121 27.308 194.281 27.308C193.291 27.308 192.47 27.1867 191.817 26.944C191.182 26.6827 190.669 26.3 190.277 25.796C189.885 25.292 189.605 24.676 189.437 23.948C189.287 23.2013 189.213 22.3427 189.213 21.372V8.38L191.817 7.932V12.44ZM75.627 35.061V36.993H70.613V51H68.382V36.993H63.368V35.061H75.627ZM81.34 38.787C81.524 38.787 81.731 38.8023 81.961 38.833C82.2063 38.8483 82.444 38.879 82.674 38.925C82.904 38.9557 83.111 38.994 83.295 39.04C83.4943 39.0707 83.64 39.1013 83.732 39.132L83.364 40.995C83.1953 40.9337 82.9117 40.8647 82.513 40.788C82.1297 40.696 81.6313 40.65 81.018 40.65C80.6193 40.65 80.2207 40.696 79.822 40.788C79.4387 40.8647 79.1857 40.9183 79.063 40.949V51H76.924V39.546C77.43 39.362 78.0587 39.1933 78.81 39.04C79.5613 38.8713 80.4047 38.787 81.34 38.787ZM89.8441 49.459C90.3501 49.459 90.7947 49.4513 91.1781 49.436C91.5767 49.4053 91.9064 49.3593 92.1671 49.298V45.733C92.0137 45.6563 91.7607 45.595 91.4081 45.549C91.0707 45.4877 90.6567 45.457 90.1661 45.457C89.8441 45.457 89.4991 45.48 89.1311 45.526C88.7784 45.572 88.4487 45.6717 88.1421 45.825C87.8507 45.963 87.6054 46.1623 87.4061 46.423C87.2067 46.6683 87.1071 46.998 87.1071 47.412C87.1071 48.1787 87.3524 48.7153 87.8431 49.022C88.3337 49.3133 89.0007 49.459 89.8441 49.459ZM89.6601 38.741C90.5187 38.741 91.2394 38.856 91.8221 39.086C92.4201 39.3007 92.8954 39.615 93.2481 40.029C93.6161 40.4277 93.8767 40.9107 94.0301 41.478C94.1834 42.03 94.2601 42.6433 94.2601 43.318V50.793C94.0761 50.8237 93.8154 50.8697 93.4781 50.931C93.1561 50.977 92.7881 51.023 92.3741 51.069C91.9601 51.115 91.5077 51.1533 91.0171 51.184C90.5417 51.23 90.0664 51.253 89.5911 51.253C88.9164 51.253 88.2954 51.184 87.7281 51.046C87.1607 50.908 86.6701 50.6933 86.2561 50.402C85.8421 50.0953 85.5201 49.6967 85.2901 49.206C85.0601 48.7153 84.9451 48.125 84.9451 47.435C84.9451 46.7757 85.0754 46.2083 85.3361 45.733C85.6121 45.2577 85.9801 44.8743 86.4401 44.583C86.9001 44.2917 87.4367 44.077 88.0501 43.939C88.6634 43.801 89.3074 43.732 89.9821 43.732C90.1967 43.732 90.4191 43.7473 90.6491 43.778C90.8791 43.7933 91.0937 43.824 91.2931 43.87C91.5077 43.9007 91.6917 43.9313 91.8451 43.962C91.9984 43.9927 92.1057 44.0157 92.1671 44.031V43.433C92.1671 43.0803 92.1287 42.7353 92.0521 42.398C91.9754 42.0453 91.8374 41.7387 91.6381 41.478C91.4387 41.202 91.1627 40.9873 90.8101 40.834C90.4727 40.6653 90.0281 40.581 89.4761 40.581C88.7707 40.581 88.1497 40.6347 87.6131 40.742C87.0917 40.834 86.7007 40.9337 86.4401 41.041L86.1871 39.27C86.4631 39.1473 86.9231 39.0323 87.5671 38.925C88.2111 38.8023 88.9087 38.741 89.6601 38.741ZM105.541 41.57C105.28 41.3553 104.904 41.1483 104.414 40.949C103.923 40.7497 103.386 40.65 102.804 40.65C102.19 40.65 101.661 40.765 101.217 40.995C100.787 41.2097 100.435 41.5163 100.159 41.915C99.8827 42.2983 99.6833 42.7583 99.5607 43.295C99.438 43.8317 99.3767 44.4067 99.3767 45.02C99.3767 46.4153 99.7217 47.4963 100.412 48.263C101.102 49.0143 102.022 49.39 103.172 49.39C103.754 49.39 104.237 49.367 104.621 49.321C105.019 49.2597 105.326 49.1983 105.541 49.137V41.57ZM105.541 33.52L107.68 33.152V50.655C107.189 50.793 106.56 50.931 105.794 51.069C105.027 51.207 104.145 51.276 103.149 51.276C102.229 51.276 101.401 51.1303 100.665 50.839C99.9287 50.5477 99.3 50.1337 98.7787 49.597C98.2573 49.0603 97.851 48.4087 97.5597 47.642C97.2837 46.86 97.1457 45.986 97.1457 45.02C97.1457 44.1 97.2607 43.2567 97.4907 42.49C97.736 41.7233 98.0887 41.064 98.5487 40.512C99.0087 39.96 99.5683 39.5307 100.228 39.224C100.902 38.9173 101.669 38.764 102.528 38.764C103.218 38.764 103.823 38.856 104.345 39.04C104.881 39.224 105.28 39.4003 105.541 39.569V33.52ZM113.496 51H111.357V39.04H113.496V51ZM112.415 36.878C112.031 36.878 111.702 36.7553 111.426 36.51C111.165 36.2493 111.035 35.9043 111.035 35.475C111.035 35.0457 111.165 34.7083 111.426 34.463C111.702 34.2023 112.031 34.072 112.415 34.072C112.798 34.072 113.12 34.2023 113.381 34.463C113.657 34.7083 113.795 35.0457 113.795 35.475C113.795 35.9043 113.657 36.2493 113.381 36.51C113.12 36.7553 112.798 36.878 112.415 36.878ZM117.174 39.385C117.665 39.2623 118.316 39.132 119.129 38.994C119.942 38.856 120.877 38.787 121.935 38.787C122.886 38.787 123.675 38.925 124.304 39.201C124.933 39.4617 125.431 39.8373 125.799 40.328C126.182 40.8033 126.451 41.3783 126.604 42.053C126.757 42.7277 126.834 43.4713 126.834 44.284V51H124.695V44.744C124.695 44.008 124.641 43.3793 124.534 42.858C124.442 42.3367 124.281 41.915 124.051 41.593C123.821 41.271 123.514 41.041 123.131 40.903C122.748 40.7497 122.272 40.673 121.705 40.673C121.475 40.673 121.237 40.6807 120.992 40.696C120.747 40.7113 120.509 40.7343 120.279 40.765C120.064 40.7803 119.865 40.8033 119.681 40.834C119.512 40.8647 119.39 40.8877 119.313 40.903V51H117.174V39.385ZM137.879 49.804C137.695 49.9267 137.335 50.0877 136.798 50.287C136.277 50.471 135.663 50.563 134.958 50.563C134.237 50.563 133.555 50.448 132.911 50.218C132.282 49.988 131.73 49.6353 131.255 49.16C130.78 48.6693 130.404 48.0637 130.128 47.343C129.852 46.6223 129.714 45.7637 129.714 44.767C129.714 43.893 129.844 43.0957 130.105 42.375C130.366 41.639 130.741 41.0103 131.232 40.489C131.738 39.9523 132.351 39.5383 133.072 39.247C133.793 38.9403 134.605 38.787 135.51 38.787C136.507 38.787 137.373 38.8637 138.109 39.017C138.86 39.155 139.489 39.2853 139.995 39.408V50.08C139.995 51.92 139.52 53.254 138.569 54.082C137.618 54.91 136.177 55.324 134.245 55.324C133.494 55.324 132.781 55.2627 132.106 55.14C131.447 55.0173 130.872 54.8717 130.381 54.703L130.772 52.84C131.201 53.0087 131.723 53.1543 132.336 53.277C132.965 53.415 133.616 53.484 134.291 53.484C135.564 53.484 136.476 53.231 137.028 52.725C137.595 52.219 137.879 51.414 137.879 50.31V49.804ZM137.856 40.926C137.641 40.8647 137.35 40.811 136.982 40.765C136.629 40.7037 136.146 40.673 135.533 40.673C134.383 40.673 133.494 41.0487 132.865 41.8C132.252 42.5513 131.945 43.548 131.945 44.79C131.945 45.48 132.029 46.0703 132.198 46.561C132.382 47.0517 132.62 47.458 132.911 47.78C133.218 48.102 133.563 48.3397 133.946 48.493C134.345 48.6463 134.751 48.723 135.165 48.723C135.732 48.723 136.254 48.6463 136.729 48.493C137.204 48.3243 137.58 48.1327 137.856 47.918V40.926Z" fill="black"/>
</svg>
