<?xml version="1.0" encoding="utf-8"?>
<!-- Generator: Adobe Illustrator 19.2.0, SVG Export Plug-In . SVG Version: 6.00 Build 0)  -->
<svg version="1.1" id="Layer_1" xmlns="http://www.w3.org/2000/svg" xmlns:xlink="http://www.w3.org/1999/xlink" x="0px" y="0px"
	 width="100px" height="100px" viewBox="0 0 100 100" style="enable-background:new 0 0 100 100;" xml:space="preserve">
<style type="text/css">
	.st0{fill:none;stroke:#050038;stroke-width:2;stroke-miterlimit:10;}
	.st1{fill:none;stroke:#050038;stroke-width:2;stroke-linecap:round;stroke-linejoin:round;stroke-miterlimit:10;}
	.st2{fill:none;stroke:#050038;stroke-width:2;stroke-linejoin:round;stroke-miterlimit:10;}
	.st3{fill:none;stroke:#48BC93;stroke-width:2;stroke-miterlimit:10;}
	.st4{fill:none;stroke:#080808;stroke-width:2;stroke-miterlimit:10;}
</style>
<g>
	<g>
		<g>
			<path class="st0" d="M52.1,59.7c4.1,2.1,8.6,3.2,13.5,3.2c16.5,0,30-13.5,30-30S82.1,3,65.6,3s-30,13.5-30,30"/>
		</g>
		<g>
			<polyline class="st1" points="49.1,52.7 55.3,41.7 46.9,34.1 44,39.8 			"/>
			<polyline class="st2" points="49.3,9 46.5,13.9 43.7,19 45.7,22.1 47.6,18.9 51.7,23.8 44.7,29.9 40.9,30.3 40,34.9 			"/>
			<path class="st0" d="M49.7,11.9l3.6,7.6l4.9-4l1.5-6.9C59.7,8.6,56,8.6,49.7,11.9z"/>
			<path class="st0" d="M85,10.8c-3.6,1.9-7,3.7-7,3.7l-6.9,2.2l-4.4-1.5l-4.5,4.1l1.6,2.5L60,23.9l0.3,1.8l4.3,0.7l3.9,2.2
				l-3.2,0.8l-1.9-1.2L60,29l-2.2,6l1.8,3.1l3.5,0.1l1.2,7.1l2.2,4.9l2.7-1.7l5-12.4l-3-1.2l-0.5-2.8l2.9,1.1l1.5,0.4l2-2.5l2.5,4.5
				l3.9-2.6l2.8,5.5l4.5-9.1l2.8-5.2"/>
		</g>
	</g>
	<g>
		<g>
			<path class="st3" d="M13.1,54v-8.2c0-7.5,6.1-13.7,13.7-13.7h4.3c7.5,0,13.7,6.1,13.7,13.7V54 M39.3,54v-8.2
				c0-4.5-3.7-8.2-8.2-8.2h-4.3c-4.5,0-8.2,3.7-8.2,8.2V54"/>
		</g>
		<path class="st3" d="M49.9,54.8v38.9H8L7.7,54.8h41.9 M52.7,52.1h-2.8H8H5.2v2.8v38.9v2.8H8h41.9h2.8v-2.8v-39V52.1L52.7,52.1z"/>
		<path class="st3" d="M32.8,68.8c0-2.1-1.7-3.9-3.9-3.9c-2.1,0-3.9,1.7-3.9,3.9c0,1.4,0.8,2.6,1.9,3.3L26,81.6h2.9h2.9l-0.9-9.5
			C32,71.5,32.8,70.2,32.8,68.8z"/>
	</g>
	<g>
		<polyline class="st0" points="82.4,80.4 90.7,72.1 82.4,63.8 		"/>
		<line class="st0" x1="89.4" y1="72.1" x2="59.3" y2="72.1"/>
	</g>
	<g>
		<polyline class="st4" points="67.6,78.1 59.3,86.4 67.6,94.7 		"/>
		<line class="st0" x1="60.7" y1="86.4" x2="90.7" y2="86.4"/>
	</g>
</g>
</svg>
